<svg id="gophertuts-ninja" xmlns="http://www.w3.org/2000/svg" xmlns:xlink="http://www.w3.org/1999/xlink" viewBox="0 0 1259.75 1346.18"><defs><style>.cls-1{fill:#c0cccc;}.cls-2{fill:#263238;}.cls-11,.cls-12,.cls-26,.cls-29,.cls-3,.cls-34,.cls-39{fill:none;}.cls-4{clip-path:url(#clip-path);}.cls-5{fill:#e2e2e2;}.cls-6{fill:#009688;}.cls-7{fill:#90a4ae;}.cls-8{clip-path:url(#clip-path-2);}.cls-9{fill:#00bcd4;}.cls-10{fill:#4dd0e1;}.cls-11,.cls-12,.cls-22,.cls-26,.cls-29,.cls-34,.cls-35,.cls-36,.cls-38,.cls-39,.cls-42{stroke:#1d1d1b;}.cls-11,.cls-12,.cls-22,.cls-26,.cls-35,.cls-39{stroke-linecap:round;}.cls-11,.cls-22,.cls-39{stroke-linejoin:round;}.cls-11{stroke-width:6px;}.cls-12,.cls-26,.cls-29,.cls-34,.cls-35,.cls-36,.cls-38,.cls-42{stroke-miterlimit:10;}.cls-12,.cls-22,.cls-38,.cls-42{stroke-width:10px;}.cls-13{fill:#b0bec5;}.cls-14{fill:#cfd8dc;}.cls-15{fill:#26a69a;}.cls-16{fill:#00bfa5;}.cls-17{fill:#37474f;}.cls-18{fill:#00796b;}.cls-19{fill:#455a64;}.cls-20{fill:#00897b;}.cls-21{fill:#00695c;}.cls-22{fill:#f6d29f;}.cls-23{fill:#546e7a;}.cls-24{clip-path:url(#clip-path-3);}.cls-25{fill:#95a9b9;}.cls-26{stroke-width:17px;}.cls-27{fill:#fff;}.cls-28{fill:#b9b9b9;}.cls-29{stroke-width:7px;}.cls-30{fill:#ccbdac;}.cls-31{fill:#958b7f;}.cls-32,.cls-35{fill:#595755;}.cls-33{fill:#454342;}.cls-34,.cls-36{stroke-width:8px;}.cls-35,.cls-39{stroke-width:4px;}.cls-36,.cls-42{fill:#fafafa;}.cls-37{clip-path:url(#clip-path-4);}.cls-38{fill:#26c6da;}.cls-40{fill:#d9d9d9;opacity:0.5;isolation:isolate;}.cls-41{fill:#1d1d1b;}.cls-43{clip-path:url(#clip-path-5);}.cls-44{fill:#eceff1;}</style><clipPath id="clip-path" transform="translate(-571.05 -99.82)"><rect class="cls-1" x="957.78" y="85.37" width="74.4" height="282.16" rx="37.2" transform="translate(23.23 537.85) rotate(-30.59)"/></clipPath><clipPath id="clip-path-2" transform="translate(-571.05 -99.82)"><rect class="cls-1" x="1520.9" y="86.37" width="74.4" height="282.16" rx="37.2" transform="translate(2783.62 1216.14) rotate(-149.41)"/></clipPath><clipPath id="clip-path-3" transform="translate(-571.05 -99.82)"><path id="shape" class="cls-2" d="M843,1446V1002.6S850.8,798,870.3,734c0,0,11.7-72.5,23.4-102.3,9.7-24.7,19.4-69.9,62.3-113.8A252.59,252.59,0,0,1,987.3,491s85.9-63.9,203-72.5c0,0,101.5-17.1,210.8,8.5,0,0,66.3,8.5,152.2,59.7,0,0,66.3,42.6,93.7,93.8,0,0,35.1,81,50.7,243,0,0,15.6,196.1,15.6,319.7,0,0,3.9,208.9-3.9,302.7"/></clipPath><clipPath id="clip-path-4" transform="translate(-571.05 -99.82)"><circle class="cls-3" cx="1127" cy="711" r="101.5"/></clipPath><clipPath id="clip-path-5" transform="translate(-571.05 -99.82)"><circle class="cls-3" cx="1441" cy="711" r="101.5"/></clipPath></defs><title>gophertuts-ninja</title><g id="sword"><rect class="cls-1" x="957.78" y="85.37" width="74.4" height="282.16" rx="37.2" transform="translate(-547.82 438.03) rotate(-30.59)"/><g class="cls-4"><polygon class="cls-5" points="417.78 34.86 345.28 77.72 402.78 9.49 417.78 34.86"/></g><rect class="cls-6" x="987.07" y="134.91" width="74.4" height="282.16" transform="translate(-568.96 459.83) rotate(-30.59)"/><rect class="cls-6" x="1078.33" y="399.26" width="94.05" height="95.46" transform="translate(-641.91 535.07) rotate(-30.59)"/><rect class="cls-5" x="960.64" y="177.51" width="22.46" height="22.46" transform="translate(-23.84 983.25) rotate(-75.59)"/><rect class="cls-5" x="982.07" y="213.76" width="22.46" height="22.46" transform="translate(-42.86 1031.24) rotate(-75.59)"/><rect class="cls-5" x="1003.5" y="250.01" width="22.46" height="22.46" transform="translate(-61.87 1079.22) rotate(-75.59)"/><rect class="cls-5" x="1024.94" y="286.27" width="22.46" height="22.46" transform="translate(-80.89 1127.21) rotate(-75.59)"/><rect class="cls-5" x="1046.37" y="322.52" width="22.46" height="22.46" transform="translate(-99.9 1175.2) rotate(-75.59)"/><rect class="cls-5" x="1067.8" y="358.77" width="22.46" height="22.46" transform="translate(-118.92 1223.19) rotate(-75.59)"/><path class="cls-7" d="M1028.5,457l149.85-88.59a14.72,14.72,0,0,0,5.51-19.56L1008.7,452.34A14.73,14.73,0,0,0,1028.5,457Z" transform="translate(-571.05 -99.82)"/><path class="cls-5" d="M1164.06,344.2l-149.84,88.58A14.74,14.74,0,0,0,1009,453c.12.2.26.39.39.58L1184.58,350c-.11-.21-.21-.42-.33-.63A14.74,14.74,0,0,0,1164.06,344.2Z" transform="translate(-571.05 -99.82)"/></g><g id="sword-2" data-name="sword"><rect class="cls-1" x="1520.9" y="86.37" width="74.4" height="282.16" rx="37.2" transform="translate(2212.56 1116.32) rotate(-149.41)"/><g class="cls-8"><polygon class="cls-5" points="993.19 35.86 1065.69 78.72 1008.19 10.49 993.19 35.86"/></g><rect class="cls-6" x="1491.61" y="135.91" width="74.4" height="282.16" transform="translate(2132.85 1193.61) rotate(-149.41)"/><rect class="cls-6" x="1380.7" y="400.26" width="94.05" height="95.46" transform="translate(1857.73 1460.36) rotate(-149.41)"/><rect class="cls-5" x="1569.98" y="178.51" width="22.46" height="22.46" transform="translate(1219.89 1668.6) rotate(-104.41)"/><rect class="cls-5" x="1548.54" y="214.76" width="22.46" height="22.46" transform="translate(1158.01 1693.12) rotate(-104.41)"/><rect class="cls-5" x="1527.11" y="251.01" width="22.46" height="22.46" transform="translate(1096.13 1717.64) rotate(-104.41)"/><rect class="cls-5" x="1505.68" y="287.27" width="22.46" height="22.46" transform="translate(1034.26 1742.15) rotate(-104.41)"/><rect class="cls-5" x="1484.25" y="323.52" width="22.46" height="22.46" transform="translate(972.38 1766.67) rotate(-104.41)"/><rect class="cls-5" x="1462.82" y="359.77" width="22.46" height="22.46" transform="translate(910.5 1791.19) rotate(-104.41)"/><path class="cls-7" d="M1524.57,458l-149.84-88.59a14.72,14.72,0,0,1-5.51-19.56l175.16,103.54A14.74,14.74,0,0,1,1524.57,458Z" transform="translate(-571.05 -99.82)"/><path class="cls-5" d="M1389,345.2l149.84,88.58a14.74,14.74,0,0,1,5.19,20.19c-.12.2-.26.39-.39.58L1368.5,351c.11-.21.21-.42.33-.63A14.74,14.74,0,0,1,1389,345.2Z" transform="translate(-571.05 -99.82)"/></g><g id="ear1"><path class="cls-9" d="M1554.8,490.8s29.8-47.2,77.3-48.9c0,0,51.3-1.1,52.9,46.3,0,0,2.6,39.7-46,80.5" transform="translate(-571.05 -99.82)"/><path class="cls-10" d="M1608.2,446.5s46.9-25.2,66.5,16.8-19.5,79.9-19.5,79.9-35.2-21,0-42c0,0-19.5,13.5-23.5-10.1C1631.7,492.7,1573.1,513.8,1608.2,446.5Z" transform="translate(-571.05 -99.82)"/><path class="cls-11" d="M1621,477.8s3.9,15.6-19.5,46.8c0,0,23.4-7.8,46.8-3.9" transform="translate(-571.05 -99.82)"/><path class="cls-12" d="M1554.8,490.8s29.8-47.2,77.3-48.9c0,0,51.3-1.1,52.9,46.3,0,0,2.6,39.7-46,80.5" transform="translate(-571.05 -99.82)"/></g><g id="ear2"><path class="cls-9" d="M1003.4,488.9s-29.8-47.2-77.3-48.9c0,0-51.3-1.1-52.9,46.3,0,0-2.6,39.7,46,80.5" transform="translate(-571.05 -99.82)"/><path class="cls-10" d="M980.5,482.3s3.9-34.7-67.4-41.2c-47.6-1.4-22,41.2-22,41.2s11.4,22,33.4,23.8,9.2-19.5,9.2-19.5,12.8,8.5,25.6,8.5S980.5,482.3,980.5,482.3Z" transform="translate(-571.05 -99.82)"/><path class="cls-12" d="M1003.4,488.9s-29.8-47.2-77.3-48.9c0,0-51.3-1.1-52.9,46.3,0,0-2.6,39.7,46,80.5" transform="translate(-571.05 -99.82)"/><path class="cls-11" d="M907.2,498.3s23.4,3.9,46.8,23.4c0,0-11.7-27.3-7.8-39" transform="translate(-571.05 -99.82)"/></g><g id="kunai"><path class="cls-13" d="M671.78,999.55a9.15,9.15,0,0,1,2.74-1.8l71-29.36c1.82-.76,3.5-.64,4.55.31L776.76,993c1,.92,1.31,2.5.8,4.3l-20.79,75.19a9.34,9.34,0,0,1-1.5,3,10.55,10.55,0,0,1-2.76,2.61L572.8,1193.82c-.62.4-1.17.39-1.48.1s-.38-.83,0-1.48l98.27-190A10.23,10.23,0,0,1,671.78,999.55Z" transform="translate(-571.05 -99.82)"/><path class="cls-14" d="M674.52,997.75l71-29.36c1.82-.76,3.5-.64,4.55.31l14.28,13-193,212.23c-.32-.28-.38-.83,0-1.48l98.27-190A10.3,10.3,0,0,1,674.52,997.75Z" transform="translate(-571.05 -99.82)"/><path class="cls-15" d="M733.76,991.18l56.67-62.31a27,27,0,0,0,8.37,14.9,26.51,26.51,0,0,0,4.29,3.19,27,27,0,0,0,11.34,3.74L757.77,1013Z" transform="translate(-571.05 -99.82)"/><path class="cls-16" d="M733.76,991.18l56.67-62.31a27,27,0,0,0,8.37,14.9,26.51,26.51,0,0,0,4.29,3.19l-53.39,58.71Z" transform="translate(-571.05 -99.82)"/><path class="cls-17" d="M671.78,999.55a9.15,9.15,0,0,1,2.74-1.8l71-29.36c1.82-.76,3.5-.64,4.55.31L776.76,993c1,.92,1.31,2.5.8,4.3l-20.79,75.19a9.34,9.34,0,0,1-1.5,3l-83.49-75.93Z" transform="translate(-571.05 -99.82)"/><rect class="cls-18" x="779.56" y="944.01" width="8.55" height="32.45" transform="translate(-1024.99 794.27) rotate(-47.72)"/><rect class="cls-18" x="770.15" y="954.36" width="8.55" height="32.45" transform="translate(-1035.72 790.7) rotate(-47.72)"/><path class="cls-19" d="M671.78,999.55a8.74,8.74,0,0,1,1.38-1.08c.23-.15.49-.3.73-.43l.63-.29,71-29.36c1.82-.76,3.5-.64,4.55.31l14.28,13-50.78,55.84Z" transform="translate(-571.05 -99.82)"/><path class="cls-20" d="M793.44,949.68a27.13,27.13,0,1,0-1.82-38.33A27.12,27.12,0,0,0,793.44,949.68Zm26.49-29.13a12.25,12.25,0,1,1-17.3.81A12.24,12.24,0,0,1,819.93,920.55Z" transform="translate(-571.05 -99.82)"/><rect class="cls-21" x="787.53" y="962.02" width="8.55" height="10.91" transform="translate(-1027.74 802.53) rotate(-47.72)"/><rect class="cls-21" x="778.12" y="972.37" width="8.55" height="10.91" transform="translate(-1038.47 798.96) rotate(-47.72)"/><path class="cls-15" d="M798.46,944.15a19.66,19.66,0,1,0-1.31-27.77A19.68,19.68,0,0,0,798.46,944.15Zm21.47-23.6a12.25,12.25,0,1,1-17.3.81A12.24,12.24,0,0,1,819.93,920.55Z" transform="translate(-571.05 -99.82)"/></g><g id="star"><path class="cls-2" d="M1773.63,876.83l-42.59-4,26.21,20.82,14.18,3.26h0a10,10,0,1,1,17.14,10.22h0l8,9.93L1829,931.19l-23.79-35.56,4-42.59Z" transform="translate(-571.05 -99.82)"/><path class="cls-17" d="M1782.45,911.68a10,10,0,0,1-11-14.79L1731,872.81l23.79,35.56-4,42.59,35.56-23.79,42.59,4-40.39-24.08A9.93,9.93,0,0,1,1782.45,911.68Z" transform="translate(-571.05 -99.82)"/></g><g id="star-2" data-name="star"><path class="cls-2" d="M1790.76,931.17l-21.53-37-1.66,33.43,5.59,13.42h0a10,10,0,0,1,1.68,19.9h0l-3.45,12.24,7.38,34.61,15.06-40,37-21.53Z" transform="translate(-571.05 -99.82)"/><path class="cls-17" d="M1767.56,958.62a10,10,0,0,1,5.6-17.57l-3.93-46.85-15.06,40-37,21.53,40,15.06,21.53,37L1774.84,961A9.93,9.93,0,0,1,1767.56,958.62Z" transform="translate(-571.05 -99.82)"/></g><path class="cls-22" d="M1705.5,882s48.3,2.4,60.4,33.8c0,0,4.8,16.9-19.3,7.2,0,0,29,14.5-4.8,24.2,0,0-9.7,4.8-36.2-16.9" transform="translate(-571.05 -99.82)"/><path class="cls-22" d="M851.3,884s-48.3,2.4-60.4,33.8c0,0-4.8,16.9,19.3,7.2,0,0-29,14.5,4.8,24.2,0,0,9.7,4.8,36.2-16.9" transform="translate(-571.05 -99.82)"/><rect class="cls-19" x="1067.95" y="570.51" width="175" height="50"/><rect class="cls-23" x="1637.24" y="721.02" width="153.95" height="50" transform="translate(349.09 -1046.28) rotate(41.35)"/><g id="ninja_style" data-name="ninja style"><path id="shape-2" data-name="shape" class="cls-2" d="M843,1446V1002.6S850.8,798,870.3,734c0,0,11.7-72.5,23.4-102.3,9.7-24.7,19.4-69.9,62.3-113.8A252.59,252.59,0,0,1,987.3,491s85.9-63.9,203-72.5c0,0,101.5-17.1,210.8,8.5,0,0,66.3,8.5,152.2,59.7,0,0,66.3,42.6,93.7,93.8,0,0,35.1,81,50.7,243,0,0,15.6,196.1,15.6,319.7,0,0,3.9,208.9-3.9,302.7" transform="translate(-571.05 -99.82)"/><g class="cls-24"><path class="cls-17" d="M1279,1023.29c187.29,0,348.66-94.11,422-229.61-17.65-135.86-44.18-203.79-44.18-203.79-28.13-58.32-96.19-106.84-96.19-106.84-88.18-58.32-156.25-68-156.25-68-112.2-29.16-216.4-9.68-216.4-9.68-120.22,9.8-208.4,82.58-208.4,82.58a267.79,267.79,0,0,0-32.13,30.64c-44,50-54,101.49-64,129.62-12,33.94-24,116.52-24,116.52-1.83,6.66-3.56,14.66-5.19,23.69C926.22,926.74,1089.33,1023.29,1279,1023.29Z" transform="translate(-571.05 -99.82)"/></g></g><g id="wings"><path class="cls-25" d="M1322.9,921.9s27.5,10.3,44.8-17.8c0,0,.8,27.7-26.3,34-13.4,5.9-21.7,33.8-21.7,33.8S1323.8,955.1,1322.9,921.9Z" transform="translate(-571.05 -99.82)"/><path class="cls-25" d="M1235.2,929.7s-27.5,10.3-44.8-17.8c0,0-.8,27.7,26.3,34,13.4,5.9,21.7,33.8,21.7,33.8S1234.3,962.9,1235.2,929.7Z" transform="translate(-571.05 -99.82)"/></g><g id="teeth"><path class="cls-26" d="M1239.8,934.2s-3.9,39,11.7,50.7,42.9,3.9,42.9,3.9,23.4-3.9,27.3-62.4" transform="translate(-571.05 -99.82)"/><path class="cls-27" d="M1239.8,927.3s-3.9,43.7,11.7,56.8,42.9,4.4,42.9,4.4,23.4-4.4,27.3-69.9" transform="translate(-571.05 -99.82)"/><path class="cls-28" d="M1239.9,930.5s-7.9,54.4,24.4,60.1c0,0-19.5-27.3,4.9-54.7s14.6,27.3,14.6,27.3,6.8-36.9,34.1-43.7C1317.9,919.5,1283.7,903.1,1239.9,930.5Z" transform="translate(-571.05 -99.82)"/><path class="cls-29" d="M1278.8,922.4s2,30.4,3.9,37.5c2,11.7,0,32.8,0,32.8" transform="translate(-571.05 -99.82)"/></g><g id="nose"><path class="cls-30" d="M1222.4,844.4s-43.1,33.2-31.4,64.4,31.2,23.4,31.2,23.4,39-15.6,58.5-15.6,66.3,7.8,66.3,7.8,31.2,0,19.5-50.7c-11.7-27.3-43.4-39-43.4-39" transform="translate(-571.05 -99.82)"/><path class="cls-31" d="M1228.8,840.9s-35.9,29.3-35.9,68.3c9,29.3,40.4,19.5,40.4,19.5s35.9-14.6,44.9-14.6-80.7,0-22.4-39a50.76,50.76,0,0,1,22.4-4.9S1237.8,865.3,1228.8,840.9Z" transform="translate(-571.05 -99.82)"/><path class="cls-12" d="M1222.4,844.4s-43.1,33.2-31.4,64.4,31.2,23.4,31.2,23.4,39-15.6,58.5-15.6,66.3,7.8,66.3,7.8,31.2,0,19.5-50.7c-11.7-27.3-43.4-39-43.4-39" transform="translate(-571.05 -99.82)"/><path class="cls-32" d="M1226.1,819s42.9-35.1,89.8-7.8c27.3,15.6-11.7,46.8-15.6,46.8,0,0-31.2,19.5-66.3-7.8C1233.9,850.2,1214.4,838.5,1226.1,819Z" transform="translate(-571.05 -99.82)"/><path class="cls-33" d="M1278.7,805.4s-44.6,0-54.5,24.8c5,14.9,29.7,34.7,64.4,29.7C1288.6,859.8,1219.2,830.1,1278.7,805.4Z" transform="translate(-571.05 -99.82)"/><path class="cls-34" d="M1226.1,819s42.9-35.1,89.8-7.8c27.3,15.6-11.7,46.8-15.6,46.8,0,0-31.2,19.5-66.3-7.8C1233.9,850.2,1214.4,838.5,1226.1,819Z" transform="translate(-571.05 -99.82)"/><path class="cls-35" d="M1292.5,819s11.7,3.9,11.7,15.6" transform="translate(-571.05 -99.82)"/></g><g id="eye1"><circle class="cls-36" cx="555.95" cy="615.18" r="101.5"/><g class="cls-37"><ellipse class="cls-38" cx="555.45" cy="728.68" rx="186.5" ry="101.5"/></g><path class="cls-39" d="M1058,753s67-13,138,0" transform="translate(-571.05 -99.82)"/><path class="cls-40" d="M1052,713.5a113.54,113.54,0,0,1,67.5-103.8c-52.7,3.4-95,47.8-95,101.3,0,49.1,35.6,90.5,82.3,99.6A113.24,113.24,0,0,1,1052,713.5Z" transform="translate(-571.05 -99.82)"/><circle class="cls-41" cx="581.45" cy="572.68" r="21.5"/><circle class="cls-27" cx="593.95" cy="564.18" r="6"/></g><g id="eye2"><circle class="cls-42" cx="869.95" cy="616.18" r="101.5"/><g class="cls-43"><ellipse class="cls-38" cx="869.45" cy="728.68" rx="186.5" ry="101.5"/></g><path class="cls-39" d="M1460.1,748.6A362.55,362.55,0,0,1,1510,754" transform="translate(-571.05 -99.82)"/><path class="cls-39" d="M1372,754c25-5,50-6,75.1-5.8" transform="translate(-571.05 -99.82)"/><path class="cls-40" d="M1366,713.5a113.54,113.54,0,0,1,67.5-103.8c-52.7,3.4-95,47.8-95,101.3,0,49.1,35.6,90.5,82.3,99.6C1387.9,790.7,1366,744,1366,713.5Z" transform="translate(-571.05 -99.82)"/><circle class="cls-41" cx="845.45" cy="573.68" r="21.5"/><circle class="cls-27" cx="857.95" cy="565.18" r="6"/></g><g id="buttons"><rect class="cls-44" x="1245.98" y="1119.2" width="76.05" height="7.6" rx="3.8" transform="translate(826.79 2725.19) rotate(-135)"/><rect class="cls-44" x="1245.98" y="1119.2" width="76.05" height="7.6" rx="3.8" transform="translate(2414.95 909.33) rotate(135)"/><rect class="cls-44" x="1245.98" y="1169.2" width="76.05" height="7.6" rx="3.8" transform="translate(791.44 2810.54) rotate(-135)"/><rect class="cls-44" x="1245.98" y="1169.2" width="76.05" height="7.6" rx="3.8" transform="translate(2450.31 994.69) rotate(135)"/><rect class="cls-44" x="1245.98" y="1217.2" width="76.05" height="7.6" rx="3.8" transform="translate(757.5 2892.48) rotate(-135)"/><rect class="cls-44" x="1245.98" y="1217.2" width="76.05" height="7.6" rx="3.8" transform="translate(2484.25 1076.63) rotate(135)"/><rect class="cls-44" x="1245.98" y="1265.2" width="76.05" height="7.6" rx="3.8" transform="translate(723.55 2974.43) rotate(-135)"/><rect class="cls-44" x="1245.98" y="1265.2" width="76.05" height="7.6" rx="3.8" transform="translate(2518.19 1158.57) rotate(135)"/><rect class="cls-44" x="1245.98" y="1315.2" width="76.05" height="7.6" rx="3.8" transform="translate(688.2 3059.78) rotate(-135)"/><rect class="cls-44" x="1245.98" y="1315.2" width="76.05" height="7.6" rx="3.8" transform="translate(2553.55 1243.93) rotate(135)"/><rect class="cls-44" x="1245.98" y="1363.2" width="76.05" height="7.6" rx="3.8" transform="translate(654.26 3141.72) rotate(-135)"/><rect class="cls-44" x="1245.98" y="1363.2" width="76.05" height="7.6" rx="3.8" transform="translate(2587.49 1325.87) rotate(135)"/></g><g id="badge"><rect class="cls-7" x="614.15" y="367.18" width="177.6" height="108" rx="21.18"/><rect class="cls-14" x="614.15" y="355.18" width="177.6" height="108" rx="21.18"/><path class="cls-7" d="M1272.4,486.86l5.4,16.2,16.2,5.12-16.2,4.6-3.48,18.36-6.24-18.36-17.28-3.24,17.28-5.4Z" transform="translate(-571.05 -99.82)"/></g></svg>
